<svg xmlns="http://www.w3.org/2000/svg" viewBox="0 0 32 32">
  <!-- Original six-armed snowflake mark for .nix files (light themes). -->
  <g stroke="#5277C3" stroke-width="2.6" stroke-linecap="round">
    <line x1="16" y1="4" x2="16" y2="28"/>
    <line x1="5.6" y1="10" x2="26.4" y2="22"/>
    <line x1="5.6" y1="22" x2="26.4" y2="10"/>
    <line x1="16" y1="4" x2="12.4" y2="6.1"/>
    <line x1="16" y1="4" x2="19.6" y2="6.1"/>
    <line x1="16" y1="28" x2="12.4" y2="25.9"/>
    <line x1="16" y1="28" x2="19.6" y2="25.9"/>
    <line x1="5.6" y1="10" x2="5.6" y2="14.2"/>
    <line x1="5.6" y1="10" x2="9.2" y2="7.9"/>
    <line x1="26.4" y1="22" x2="26.4" y2="17.8"/>
    <line x1="26.4" y1="22" x2="22.8" y2="24.1"/>
    <line x1="5.6" y1="22" x2="5.6" y2="17.8"/>
    <line x1="5.6" y1="22" x2="9.2" y2="24.1"/>
    <line x1="26.4" y1="10" x2="26.4" y2="14.2"/>
    <line x1="26.4" y1="10" x2="22.8" y2="7.9"/>
  </g>
</svg>
